<svg xmlns="http://www.w3.org/2000/svg" width="2160" height="2160" viewBox="0 0 2160 2160">
  <defs>
    <style>
      .cls-1 {
        fill: #ff6b6b;
      }

      .cls-1, .cls-2, .cls-3 {
        fill-rule: evenodd;
      }

      .cls-2 {
        fill: #00dcff;
      }

      .cls-3 {
        fill: #eeaeee;
      }
    </style>
  </defs>
  <path id="矩形_1" data-name="矩形 1" class="cls-1" d="M521.053,649.164H704.669c63.38,0,107.726,51.063,99.042,114.1L673.262,1710.25c-8.8,63.9-67.736,115.75-131.623,115.75H356.554c-63.887,0-108.391-51.85-99.408-115.75L390.255,763.266C399.116,700.227,457.673,649.164,521.053,649.164Z"/>
  <path id="矩形_1_拷贝" data-name="矩形 1 拷贝" class="cls-2" d="M1070.15,491.582h183.61c63.38,0,107.73,51.063,99.05,114.1L1222.36,1552.66c-8.81,63.91-67.74,115.76-131.63,115.76H905.648c-63.887,0-108.39-51.85-99.407-115.76L939.349,605.684C948.21,542.645,1006.77,491.582,1070.15,491.582Z"/>
  <path id="矩形_1_拷贝_2" data-name="矩形 1 拷贝 2" class="cls-3" d="M1619.24,334h183.62c63.38,0,107.72,51.063,99.04,114.1L1771.45,1395.08c-8.8,63.91-67.74,115.76-131.62,115.76H1454.74c-63.88,0-108.39-51.85-99.4-115.76L1488.44,448.1C1497.3,385.063,1555.86,334,1619.24,334Z"/>
</svg>
